<mxfile host="app.diagrams.net" modified="2022-09-02T23:56:30.122Z" agent="5.0 (Windows)" etag="Xn-DaXoQgenYxbJpNJaB" version="20.2.7" type="github">
  <diagram name="Page-1" id="822b0af5-4adb-64df-f703-e8dfc1f81529">
    <mxGraphModel dx="2031" dy="1013" grid="1" gridSize="10" guides="1" tooltips="1" connect="1" arrows="1" fold="1" page="1" pageScale="1" pageWidth="1100" pageHeight="850" background="none" math="0" shadow="0">
      <root>
        <mxCell id="0" />
        <mxCell id="1" parent="0" />
        <mxCell id="dOWxOCrXaSyGBHubYqna-31" style="edgeStyle=orthogonalEdgeStyle;rounded=0;orthogonalLoop=1;jettySize=auto;html=1;fontSize=24;" edge="1" parent="1" source="7d933b09d9755ecc-9" target="dOWxOCrXaSyGBHubYqna-3">
          <mxGeometry relative="1" as="geometry" />
        </mxCell>
        <mxCell id="dOWxOCrXaSyGBHubYqna-32" style="edgeStyle=orthogonalEdgeStyle;rounded=0;orthogonalLoop=1;jettySize=auto;html=1;entryX=0;entryY=0.5;entryDx=0;entryDy=0;fontSize=24;" edge="1" parent="1" source="7d933b09d9755ecc-9" target="dOWxOCrXaSyGBHubYqna-21">
          <mxGeometry relative="1" as="geometry">
            <Array as="points">
              <mxPoint x="380" y="216" />
            </Array>
          </mxGeometry>
        </mxCell>
        <mxCell id="7d933b09d9755ecc-9" value="" style="verticalLabelPosition=bottom;aspect=fixed;html=1;verticalAlign=top;strokeColor=none;shape=mxgraph.citrix.tower_server;rounded=0;shadow=0;comic=0;fontFamily=Verdana;" parent="1" vertex="1">
          <mxGeometry x="370" y="443" width="65" height="85" as="geometry" />
        </mxCell>
        <mxCell id="dOWxOCrXaSyGBHubYqna-14" style="edgeStyle=orthogonalEdgeStyle;rounded=0;orthogonalLoop=1;jettySize=auto;html=1;entryX=0.182;entryY=0.872;entryDx=0;entryDy=0;entryPerimeter=0;fontSize=14;" edge="1" parent="1" source="dOWxOCrXaSyGBHubYqna-2" target="7d933b09d9755ecc-9">
          <mxGeometry relative="1" as="geometry" />
        </mxCell>
        <mxCell id="dOWxOCrXaSyGBHubYqna-2" value="" style="verticalLabelPosition=bottom;sketch=0;aspect=fixed;html=1;verticalAlign=top;strokeColor=none;align=center;outlineConnect=0;shape=mxgraph.citrix.laptop_1;" vertex="1" parent="1">
          <mxGeometry x="170" y="663" width="102.82" height="87" as="geometry" />
        </mxCell>
        <mxCell id="dOWxOCrXaSyGBHubYqna-17" style="edgeStyle=orthogonalEdgeStyle;rounded=0;orthogonalLoop=1;jettySize=auto;html=1;entryX=0.5;entryY=0;entryDx=0;entryDy=0;fontSize=14;" edge="1" parent="1" source="dOWxOCrXaSyGBHubYqna-3">
          <mxGeometry relative="1" as="geometry">
            <mxPoint x="840" y="603" as="targetPoint" />
          </mxGeometry>
        </mxCell>
        <mxCell id="dOWxOCrXaSyGBHubYqna-3" value="" style="image;html=1;image=img/lib/clip_art/networking/Print_Server_128x128.png" vertex="1" parent="1">
          <mxGeometry x="630" y="445" width="80" height="80" as="geometry" />
        </mxCell>
        <mxCell id="dOWxOCrXaSyGBHubYqna-6" value="&lt;font style=&quot;font-size: 24px;&quot;&gt;Tango&lt;/font&gt;" style="text;html=1;strokeColor=none;fillColor=none;align=center;verticalAlign=middle;whiteSpace=wrap;rounded=0;" vertex="1" parent="1">
          <mxGeometry x="880" y="583" width="50" height="30" as="geometry" />
        </mxCell>
        <mxCell id="dOWxOCrXaSyGBHubYqna-8" value="&lt;font style=&quot;font-size: 18px;&quot;&gt;F5&lt;/font&gt; &lt;p&gt;&lt;font size=&quot;3&quot;&gt;&lt;span lang=&quot;EN-US&quot;&gt;&lt;a href=&quot;https://10.203.20.74:10014/sm-api/smEndpoint&quot;&gt;https://10.203.20.74:10014/sm-api/smEndpoint&lt;/a&gt;&lt;/span&gt;&lt;/font&gt;&lt;/p&gt;" style="text;html=1;strokeColor=none;fillColor=none;align=center;verticalAlign=middle;whiteSpace=wrap;rounded=0;" vertex="1" parent="1">
          <mxGeometry x="645" y="393" width="50" height="30" as="geometry" />
        </mxCell>
        <mxCell id="dOWxOCrXaSyGBHubYqna-12" value="&lt;div&gt;&lt;font style=&quot;font-size: 24px;&quot;&gt;Stardust &lt;b&gt;&lt;span&gt;10.188.90.25&lt;/span&gt;&lt;/b&gt;&lt;/font&gt;&lt;/div&gt;" style="text;html=1;strokeColor=none;fillColor=none;align=center;verticalAlign=middle;whiteSpace=wrap;rounded=0;" vertex="1" parent="1">
          <mxGeometry x="260" y="423" width="50" height="30" as="geometry" />
        </mxCell>
        <mxCell id="dOWxOCrXaSyGBHubYqna-13" value="&lt;font style=&quot;font-size: 24px;&quot;&gt;&lt;b&gt;Administrador &lt;br&gt;&lt;/b&gt;&lt;/font&gt;&lt;p&gt;&lt;font size=&quot;3&quot;&gt;&lt;b&gt;VFKG011&lt;/b&gt;&lt;/font&gt;&lt;/p&gt;" style="text;html=1;strokeColor=none;fillColor=none;align=center;verticalAlign=middle;whiteSpace=wrap;rounded=0;" vertex="1" parent="1">
          <mxGeometry x="280" y="763" width="50" height="30" as="geometry" />
        </mxCell>
        <mxCell id="dOWxOCrXaSyGBHubYqna-20" value="" style="aspect=fixed;perimeter=ellipsePerimeter;html=1;align=center;shadow=0;dashed=0;spacingTop=3;image;image=img/lib/active_directory/database_server.svg;fontSize=24;" vertex="1" parent="1">
          <mxGeometry x="815.2" y="603" width="114.8" height="140" as="geometry" />
        </mxCell>
        <mxCell id="dOWxOCrXaSyGBHubYqna-33" style="edgeStyle=orthogonalEdgeStyle;rounded=0;orthogonalLoop=1;jettySize=auto;html=1;fontSize=24;" edge="1" parent="1" source="dOWxOCrXaSyGBHubYqna-21">
          <mxGeometry relative="1" as="geometry">
            <mxPoint x="870" y="216" as="targetPoint" />
          </mxGeometry>
        </mxCell>
        <mxCell id="dOWxOCrXaSyGBHubYqna-21" value="" style="aspect=fixed;perimeter=ellipsePerimeter;html=1;align=center;shadow=0;dashed=0;spacingTop=3;image;image=img/lib/active_directory/internet_cloud.svg;fontSize=24;" vertex="1" parent="1">
          <mxGeometry x="440" y="153" width="200" height="126" as="geometry" />
        </mxCell>
        <mxCell id="dOWxOCrXaSyGBHubYqna-24" value="&lt;div&gt;&lt;b&gt;&lt;font style=&quot;font-size: 24px;&quot;&gt;Internet&lt;/font&gt;&lt;/b&gt;&lt;/div&gt;" style="text;html=1;strokeColor=none;fillColor=none;align=center;verticalAlign=middle;whiteSpace=wrap;rounded=0;" vertex="1" parent="1">
          <mxGeometry x="515" y="194.7" width="50" height="30" as="geometry" />
        </mxCell>
        <mxCell id="dOWxOCrXaSyGBHubYqna-26" value="" style="verticalLabelPosition=bottom;html=1;verticalAlign=top;align=center;strokeColor=none;fillColor=#00BEF2;shape=mxgraph.azure.mobile_services;pointerEvents=1;fontSize=24;" vertex="1" parent="1">
          <mxGeometry x="110" y="60" width="71.5" height="110" as="geometry" />
        </mxCell>
        <mxCell id="dOWxOCrXaSyGBHubYqna-27" value="&lt;font style=&quot;font-size: 24px;&quot;&gt;Usuario Telegram&lt;/font&gt;" style="text;html=1;strokeColor=none;fillColor=none;align=center;verticalAlign=middle;whiteSpace=wrap;rounded=0;" vertex="1" parent="1">
          <mxGeometry x="70" y="193.4" width="50" height="30" as="geometry" />
        </mxCell>
        <mxCell id="dOWxOCrXaSyGBHubYqna-34" style="edgeStyle=orthogonalEdgeStyle;rounded=0;orthogonalLoop=1;jettySize=auto;html=1;fontSize=18;" edge="1" parent="1" source="dOWxOCrXaSyGBHubYqna-28">
          <mxGeometry relative="1" as="geometry">
            <mxPoint x="220" y="110" as="targetPoint" />
            <Array as="points">
              <mxPoint x="710" y="110" />
              <mxPoint x="710" y="110" />
            </Array>
          </mxGeometry>
        </mxCell>
        <mxCell id="dOWxOCrXaSyGBHubYqna-28" value="" style="aspect=fixed;perimeter=ellipsePerimeter;html=1;align=center;shadow=0;dashed=0;spacingTop=3;image;image=img/lib/active_directory/web_server.svg;fontSize=24;" vertex="1" parent="1">
          <mxGeometry x="880" y="93" width="120" height="150" as="geometry" />
        </mxCell>
        <mxCell id="dOWxOCrXaSyGBHubYqna-29" value="&lt;font style=&quot;font-size: 24px;&quot;&gt;https://api.telegram.org/bot&lt;/font&gt;" style="text;html=1;strokeColor=none;fillColor=none;align=center;verticalAlign=middle;whiteSpace=wrap;rounded=0;" vertex="1" parent="1">
          <mxGeometry x="900" y="283" width="50" height="30" as="geometry" />
        </mxCell>
        <mxCell id="dOWxOCrXaSyGBHubYqna-36" style="edgeStyle=orthogonalEdgeStyle;rounded=0;orthogonalLoop=1;jettySize=auto;html=1;fontSize=18;endArrow=block;endFill=1;" edge="1" parent="1">
          <mxGeometry relative="1" as="geometry">
            <mxPoint x="900.0000210304997" y="80" as="targetPoint" />
            <mxPoint x="218.04" y="80" as="sourcePoint" />
            <Array as="points">
              <mxPoint x="559.0200210304997" y="80" />
              <mxPoint x="559.0200210304997" y="80" />
            </Array>
          </mxGeometry>
        </mxCell>
        <mxCell id="dOWxOCrXaSyGBHubYqna-37" value="&lt;font style=&quot;font-size: 36px;&quot;&gt;1&lt;/font&gt;" style="text;html=1;strokeColor=none;fillColor=none;align=center;verticalAlign=middle;whiteSpace=wrap;rounded=0;" vertex="1" parent="1">
          <mxGeometry x="220" y="30" width="50" height="30" as="geometry" />
        </mxCell>
        <mxCell id="dOWxOCrXaSyGBHubYqna-38" value="&lt;font style=&quot;font-size: 36px;&quot;&gt;2&lt;/font&gt;" style="text;html=1;strokeColor=none;fillColor=none;align=center;verticalAlign=middle;whiteSpace=wrap;rounded=0;" vertex="1" parent="1">
          <mxGeometry x="500" y="400" width="50" height="30" as="geometry" />
        </mxCell>
        <mxCell id="dOWxOCrXaSyGBHubYqna-39" value="&lt;font style=&quot;font-size: 36px;&quot;&gt;3&lt;/font&gt;" style="text;html=1;strokeColor=none;fillColor=none;align=center;verticalAlign=middle;whiteSpace=wrap;rounded=0;" vertex="1" parent="1">
          <mxGeometry x="910" y="500" width="50" height="30" as="geometry" />
        </mxCell>
        <mxCell id="dOWxOCrXaSyGBHubYqna-42" value="&lt;font style=&quot;font-size: 36px;&quot;&gt;4&lt;/font&gt;" style="text;html=1;strokeColor=none;fillColor=none;align=center;verticalAlign=middle;whiteSpace=wrap;rounded=0;" vertex="1" parent="1">
          <mxGeometry x="222.82000000000005" y="140" width="50" height="30" as="geometry" />
        </mxCell>
      </root>
    </mxGraphModel>
  </diagram>
</mxfile>
